# Wheel OBJ file
o Wheel_N8_R1.0_T0.5
# Vertices: 18
v 0.25 0 0
v -0.25 0 0
v 0.25 0.0 1.0
v -0.25 0.0 1.0
v 0.25 0.7071067811865475 0.7071067811865476
v -0.25 0.7071067811865475 0.7071067811865476
v 0.25 1.0 6.123233995736766e-17
v -0.25 1.0 6.123233995736766e-17
v 0.25 0.7071067811865476 -0.7071067811865475
v -0.25 0.7071067811865476 -0.7071067811865475
v 0.25 1.2246467991473532e-16 -1.0
v -0.25 1.2246467991473532e-16 -1.0
v 0.25 -0.7071067811865475 -0.7071067811865477
v -0.25 -0.7071067811865475 -0.7071067811865477
v 0.25 -1.0 -1.8369701987210297e-16
v -0.25 -1.0 -1.8369701987210297e-16
v 0.25 -0.7071067811865477 0.7071067811865474
v -0.25 -0.7071067811865477 0.7071067811865474
# Normals: 32
vn 0.0 0.3826834323650898 0.9238795325112867
vn 0.0 0.3826834323650898 0.9238795325112867
vn 0.0 0.9238795325112867 0.3826834323650899
vn 0.0 0.9238795325112867 0.3826834323650899
vn 0.0 0.9238795325112866 -0.38268343236508967
vn 0.0 0.9238795325112866 -0.38268343236508967
vn 0.0 0.3826834323650899 -0.9238795325112867
vn 0.0 0.3826834323650899 -0.9238795325112867
vn -0.0 -0.38268343236508956 -0.9238795325112868
vn 0.0 -0.38268343236508956 -0.9238795325112868
vn -0.0 -0.9238795325112867 -0.3826834323650899
vn 0.0 -0.9238795325112867 -0.3826834323650899
vn 0.0 -0.9238795325112868 0.38268343236508956
vn 0.0 -0.9238795325112868 0.38268343236508956
vn 0.0 -0.3826834323650899 0.9238795325112866
vn 0.0 -0.3826834323650899 0.9238795325112866
vn 1.0 0.0 0.0
vn -1.0 0.0 0.0
vn 1.0 0.0 0.0
vn -1.0 0.0 -0.0
vn 1.0 0.0 -0.0
vn -1.0 0.0 0.0
vn 1.0 0.0 -0.0
vn -1.0 -0.0 0.0
vn 1.0 -0.0 0.0
vn -1.0 0.0 0.0
vn 1.0 -0.0 0.0
vn -1.0 0.0 0.0
vn 1.0 0.0 0.0
vn -1.0 0.0 0.0
vn 1.0 0.0 0.0
vn -1.0 0.0 0.0
# Faces: 32
f 5//1 6//1 3//1
f 6//2 4//2 3//2
f 7//3 8//3 5//3
f 8//4 6//4 5//4
f 9//5 10//5 7//5
f 10//6 8//6 7//6
f 11//7 12//7 9//7
f 12//8 10//8 9//8
f 13//9 14//9 11//9
f 14//10 12//10 11//10
f 15//11 16//11 13//11
f 16//12 14//12 13//12
f 17//13 18//13 15//13
f 18//14 16//14 15//14
f 3//15 4//15 17//15
f 4//16 18//16 17//16
f 5//17 3//17 1//17
f 4//18 6//18 2//18
f 7//19 5//19 1//19
f 6//20 8//20 2//20
f 9//21 7//21 1//21
f 8//22 10//22 2//22
f 11//23 9//23 1//23
f 10//24 12//24 2//24
f 13//25 11//25 1//25
f 12//26 14//26 2//26
f 15//27 13//27 1//27
f 14//28 16//28 2//28
f 17//29 15//29 1//29
f 16//30 18//30 2//30
f 3//31 17//31 1//31
f 18//32 4//32 2//32
