# Wheel OBJ file
o Wheel_N4_R0.16_T0.1
# Vertices: 10
v 0.05 0 0
v -0.05 0 0
v 0.05 0.0 0.16
v -0.05 0.0 0.16
v 0.05 0.16 9.797174393178826e-18
v -0.05 0.16 9.797174393178826e-18
v 0.05 1.959434878635765e-17 -0.16
v -0.05 1.959434878635765e-17 -0.16
v 0.05 -0.16 -2.9391523179536474e-17
v -0.05 -0.16 -2.9391523179536474e-17
# Normals: 16
vn 0.0 0.7071067811865476 0.7071067811865476
vn 0.0 0.7071067811865476 0.7071067811865476
vn 0.0 0.7071067811865477 -0.7071067811865475
vn 0.0 0.7071067811865477 -0.7071067811865475
vn -0.0 -0.7071067811865474 -0.7071067811865477
vn 0.0 -0.7071067811865474 -0.7071067811865477
vn 0.0 -0.7071067811865476 0.7071067811865475
vn 0.0 -0.7071067811865476 0.7071067811865475
vn 1.0 0.0 0.0
vn -1.0 0.0 0.0
vn 1.0 0.0 -0.0
vn -1.0 0.0 0.0
vn 1.0 -0.0 0.0
vn -1.0 0.0 0.0
vn 1.0 0.0 0.0
vn -1.0 0.0 0.0
# Faces: 16
f 5//1 6//1 3//1
f 6//2 4//2 3//2
f 7//3 8//3 5//3
f 8//4 6//4 5//4
f 9//5 10//5 7//5
f 10//6 8//6 7//6
f 3//7 4//7 9//7
f 4//8 10//8 9//8
f 5//9 3//9 1//9
f 4//10 6//10 2//10
f 7//11 5//11 1//11
f 6//12 8//12 2//12
f 9//13 7//13 1//13
f 8//14 10//14 2//14
f 3//15 9//15 1//15
f 10//16 4//16 2//16
